<?xml version="1.0" encoding="utf-8"?>
<!-- Generator: Adobe Illustrator 24.0.2, SVG Export Plug-In . SVG Version: 6.00 Build 0)  -->
<svg version="1.1" id="Layer_1" xmlns="http://www.w3.org/2000/svg" xmlns:xlink="http://www.w3.org/1999/xlink" x="0px" y="0px"
	 viewBox="0 0 200 200" style="enable-background:new 0 0 200 200;" xml:space="preserve">
<style type="text/css">
	.st0{clip-path:url(#SVGID_2_);}
	.st1{clip-path:url(#SVGID_4_);}
	.st2{clip-path:url(#SVGID_6_);}
	.st3{clip-path:url(#SVGID_8_);}
	.st4{clip-path:url(#SVGID_10_);}
	.st5{clip-path:url(#SVGID_12_);}
	.st6{clip-path:url(#SVGID_14_);}
	.st7{clip-path:url(#SVGID_16_);}
	.st8{clip-path:url(#SVGID_18_);}
</style>
<g>
	<defs>
		<rect id="SVGID_1_" x="5" y="2.67" width="190.95" height="194.22"/>
	</defs>
	<clipPath id="SVGID_2_">
		<use xlink:href="#SVGID_1_"  style="overflow:visible;"/>
	</clipPath>
	<path class="st0" d="M113.99,187.18c2.35-0.22,4.7-0.47,7.03-0.82c2.29-0.34,4.56-0.76,6.83-1.2c3.28-0.71,6.49-1.52,9.68-2.53
		c2.21-0.84,4.35-1.77,6.48-2.8c2.04-1.13,4.01-2.33,5.96-3.6c3.29-2.3,6.49-4.7,9.54-7.32c1.47-1.38,2.85-2.8,4.2-4.29
		c2.18-2.6,4.19-5.29,6.11-8.09c2.59-3.94,5.14-7.9,7.37-12.06c1.5-3.06,2.81-6.15,3.98-9.35c1.23-3.77,2.22-7.59,3.07-11.47
		c0.91-4.66,1.51-9.32,1.87-14.05c0.37-6.52,0.43-13.04,0.06-19.57c-0.25-3.48-0.53-6.97-0.79-10.45c-0.25-3.4-0.6-6.77-1.21-10.13
		c-0.3-1.38-0.65-2.74-1.06-4.1c-0.93-2.57-2.06-5.05-3.19-7.55c-1.07-2.35-2.15-4.71-3.29-7.02c-1.61-3.17-3.13-6.38-4.73-9.57
		c-1.29-2.48-2.66-4.94-4.2-7.28c-0.89-1.25-1.83-2.46-2.76-3.67c-1.06-1.38-2-2.82-2.96-4.26c-0.24-0.34-0.49-0.66-0.75-0.98
		c-0.74-0.8-1.55-1.54-2.36-2.26c-1.03-0.87-2.1-1.7-3.21-2.47c-0.59-0.38-1.22-0.68-1.84-1.02c-0.37-0.2-0.7-0.46-0.99-0.75
		c-0.22-0.09-0.43-0.19-0.64-0.32c-0.31-0.19-0.63-0.37-0.95-0.55c-0.8-0.35-1.6-0.67-2.42-0.97c-3.75-1.16-7.58-2.04-11.42-2.84
		c-3.57-0.63-7.13-1.09-10.74-1.42c-2.76-0.14-5.51-0.23-8.27-0.23c-2.67,0-5.34,0.15-8.01,0.3c-3.01,0.21-6.01,0.45-9.02,0.78
		c-2.93,0.32-5.84,0.8-8.75,1.28c-1.6,0.33-3.19,0.66-4.77,1.06c-1.87,0.48-3.7,1.03-5.54,1.6c-2.32,0.85-4.62,1.74-6.92,2.68
		c-2.28,0.93-4.5,2.05-6.72,3.13c-4.44,2.31-8.79,4.71-12.98,7.44c-1.64,1.15-3.29,2.3-4.86,3.55c-1.73,1.38-3.43,2.79-5.12,4.22
		c-1.29,1.18-2.58,2.36-3.82,3.59c-1.39,1.39-2.72,2.82-4.06,4.26c-1.58,1.83-3.11,3.68-4.62,5.58c-1.54,1.94-2.93,4.01-4.34,6.05
		c-0.99,1.57-1.98,3.12-2.89,4.74c-0.91,1.61-1.75,3.23-2.59,4.88c-0.77,1.66-1.54,3.31-2.23,5c-0.71,1.72-1.33,3.45-1.94,5.2
		c-0.36,1.23-0.72,2.46-1.07,3.69c-0.36,1.24-0.61,2.52-0.91,3.78c-0.5,2.55-0.94,5.09-1.34,7.65c-0.44,2.8-0.63,5.65-0.88,8.46
		c-0.15,2.58-0.26,5.15-0.34,7.73c-0.08,2.57,0.05,5.13,0.17,7.7c0.17,1.77,0.33,3.54,0.58,5.3c0.26,1.87,0.6,3.71,0.94,5.57
		c0.42,1.79,0.84,3.56,1.34,5.33c0.43,1.53,0.95,3.02,1.46,4.53c0.88,2.14,1.8,4.23,2.78,6.32c0.7,1.34,1.38,2.69,2.12,4.01
		c0.84,1.49,1.73,2.95,2.63,4.41c1.14,1.68,2.3,3.33,3.49,4.98c1.26,1.74,2.68,3.34,4.1,4.95c-0.13-0.15-0.26-0.3-0.39-0.45
		c1.38,1.37,2.78,2.69,4.22,3.99c2.41,1.97,4.88,3.83,7.43,5.63c1.68,1.12,3.37,2.21,5.09,3.28c1.74,1.08,3.59,2.02,5.41,2.96
		c1.92,0.88,3.83,1.71,5.79,2.5c2.49,0.84,4.98,1.63,7.52,2.3c2.55,0.67,5.11,1.25,7.69,1.8c7.55,1.37,15.13,2.46,22.77,3.13
		C104.55,187.37,109.25,187.44,113.99,187.18z M105.52,196.58c-4.91-0.05-9.85-0.53-14.72-1.15c-4.94-0.63-9.86-1.4-14.76-2.29
		c-2.49-0.45-4.96-1.05-7.42-1.64c-2.2-0.52-4.45-1.11-6.59-1.84c-2.37-0.81-4.77-1.58-7.05-2.63c-2.39-1.1-4.76-2.22-7.04-3.53
		c-4.45-2.56-8.68-5.44-12.79-8.52c-1.96-1.47-3.76-3.13-5.59-4.76c-0.91-0.81-1.79-1.71-2.6-2.63c-0.75-0.85-1.54-1.68-2.24-2.57
		c-3.17-4.05-6.12-8.25-8.64-12.74c-2.5-4.47-4.64-9.09-6.31-13.94c-1.6-4.64-2.71-9.49-3.38-14.35c-0.71-5.06-1.11-10.18-0.96-15.3
		c0.16-5.27,0.49-10.51,1.12-15.75c0.28-2.3,0.62-4.6,1.07-6.88c0.5-2.52,0.96-5.06,1.68-7.53c0.4-1.37,0.75-2.75,1.23-4.09
		c0.43-1.23,0.86-2.46,1.29-3.69c0.42-1.19,0.97-2.36,1.46-3.53c0.49-1.19,1.08-2.34,1.61-3.51c2.18-4.73,4.95-9.16,7.91-13.43
		c2.82-4.08,5.94-7.97,9.31-11.61c3.32-3.58,6.84-7.01,10.67-10.05c3.93-3.13,7.95-6.17,12.3-8.7c4.34-2.52,8.76-4.97,13.34-7.03
		c2.34-1.05,4.67-2.15,7.08-3.03c1.2-0.43,2.4-0.87,3.6-1.3c1.37-0.5,2.78-0.88,4.17-1.31c2.35-0.73,4.79-1.17,7.2-1.66
		c2.46-0.5,4.95-0.85,7.43-1.19c5.02-0.7,10.1-1,15.15-1.29c2.41-0.14,4.82-0.15,7.23-0.15c2.46,0,4.96,0.08,7.41,0.3
		c2.18,0.19,4.36,0.39,6.52,0.71c2.52,0.37,5,0.84,7.49,1.36c2.18,0.45,4.34,1.02,6.5,1.58c2.98,0.77,5.99,1.74,8.63,3.34
		c0.36,0.22,0.68,0.48,0.96,0.77c0.23,0.08,0.45,0.18,0.67,0.3c0.66,0.36,1.33,0.69,1.96,1.1c0.93,0.61,1.83,1.28,2.71,1.96
		c1.26,0.97,2.45,2.02,3.6,3.12c1.62,1.53,2.81,3.31,4.03,5.15c1.07,1.53,2.25,2.98,3.37,4.47c1.45,1.93,2.69,3.99,3.88,6.08
		c2.07,3.64,3.81,7.44,5.67,11.18c2.04,4.05,3.95,8.15,5.82,12.28c1.06,2.34,2.01,4.7,2.75,7.15c0.68,2.26,1.11,4.6,1.47,6.93
		c0.73,4.75,0.92,9.59,1.3,14.38c0.39,4.98,0.64,9.95,0.6,14.95c-0.03,4.8-0.26,9.59-0.69,14.37c-0.46,5.06-1.41,10.06-2.57,15.01
		c-1.12,4.76-2.62,9.44-4.51,13.95c-1.88,4.46-4.23,8.67-6.81,12.76c-2.67,4.22-5.43,8.38-8.54,12.3
		c-3.08,3.88-6.62,7.35-10.53,10.39c-3.97,3.09-8.07,6.05-12.47,8.49c-2.08,1.16-4.26,2.25-6.49,3.09c-2.58,0.97-5.18,1.8-7.84,2.53
		c-2.42,0.66-4.91,1.14-7.38,1.61c-2.29,0.44-4.6,0.81-6.91,1.15c-4.49,0.67-9.02,0.88-13.55,0.88
		C106.74,196.6,106.13,196.59,105.52,196.58z"/>
	<path class="st0" d="M44.63,68.22c-1.93-1.6-2.41-4.42-0.83-6.46c0.94-1.21,2.47-1.85,3.96-1.78c1.04-0.12,2.07-0.31,3.1-0.5
		c0.62-0.15,1.24-0.3,1.85-0.48c1.15-0.42,2.26-0.89,3.37-1.41c1.88-1,3.71-2.08,5.5-3.24c0.55-0.39,1.08-0.79,1.61-1.21
		c0.58-0.54,1.14-1.08,1.68-1.66c0.46-0.55,0.91-1.1,1.35-1.67c1.54-1.98,4.47-2.37,6.46-0.83c1.99,1.53,2.37,4.47,0.83,6.46
		c-1.63,2.11-3.41,3.98-5.5,5.64c-1.1,0.87-2.34,1.61-3.53,2.34c-1.09,0.68-2.2,1.31-3.33,1.91c-2.52,1.32-5.1,2.41-7.88,3.04
		c-1.26,0.28-2.53,0.48-3.81,0.68c-0.55,0.09-1.13,0.15-1.71,0.15C46.63,69.19,45.52,68.96,44.63,68.22z"/>
	<path class="st0" d="M61.84,103.01c-1.08-0.39-2.12-0.92-2.94-1.74c-0.84-0.84-1.36-1.76-1.88-2.82c-0.38-0.77-0.51-1.72-0.64-2.56
		c-0.14-0.91-0.14-1.86-0.09-2.77c0.03-0.7,0.08-1.39,0.14-2.09c0-0.71,0.04-1.41,0.12-2.11c0.33-2.86,1.1-5.82,2.92-8.12
		c0.79-1.01,1.66-1.88,2.66-2.69c1.09-0.87,2.36-1.41,3.67-1.85c2.16-0.73,5.05-0.2,6.68,1.43c0.92,0.92,1.59,1.89,2.07,3.11
		c0.5,1.25,0.72,2.61,0.84,3.95c0.27,2.73-0.11,5.51-0.87,8.13c-0.63,2.16-1.61,4.33-2.89,6.16c-0.6,0.84-1.24,1.63-2.03,2.3
		c-0.73,0.62-1.51,1.07-2.37,1.5c-0.84,0.42-1.83,0.61-2.82,0.61C63.51,103.44,62.62,103.29,61.84,103.01z"/>
	<path class="st0" d="M155.26,73.23c-2.32-0.14-4.63-0.34-6.93-0.71c-4.71-0.75-9.25-2.62-12.42-6.29
		c-2.06-2.39-3.69-5.23-5.25-7.96c-0.93-1.62-1.93-3.42-1.6-5.36c0.33-2,1.88-3.72,3.95-3.96c2.49-0.28,4.84,1.41,5.19,3.94
		c0,0,0,0,0,0.01c1.06,2.01,2.3,3.96,3.56,5.85c0.4,0.56,0.82,1.1,1.27,1.63c0.2,0.21,0.41,0.42,0.62,0.62
		c0.2,0.17,0.41,0.33,0.62,0.48c0.32,0.2,0.65,0.39,0.98,0.57c0.46,0.21,0.92,0.4,1.39,0.58c0.95,0.3,1.91,0.53,2.88,0.74
		c2.11,0.33,4.23,0.54,6.37,0.69c2.26,0.15,3.98,2.41,3.98,4.56c0,2.32-1.97,4.62-4.37,4.62C155.42,73.24,155.34,73.24,155.26,73.23
		z"/>
	<path class="st0" d="M132.89,99.78c-1.38-0.17-2.54-0.92-3.66-1.68c-0.86-0.6-1.48-1.55-2.04-2.4c-0.7-1.08-1.13-2.49-1.31-3.76
		c-0.51-3.46,0.14-6.92,0.94-10.28c0.27-1.14,0.67-2.26,1.12-3.34c0.44-1.05,1.1-1.88,1.84-2.71c0.37-0.41,0.94-0.78,1.42-1.05
		c0.53-0.31,1.1-0.48,1.7-0.59c1.01-0.18,1.94-0.07,2.91,0.17c0.22-0.01,0.45-0.02,0.66-0.03c1.49-0.09,2.94,0.73,4.08,1.58
		c1.96,1.46,2.63,4.1,2.97,6.38c0.24,1.65,0.2,3.31,0.11,4.96c-0.14,2.61-0.69,5.36-1.99,7.65c-1.19,2.11-3.08,4.35-5.57,4.9
		c-0.73,0.16-1.42,0.25-2.13,0.25C133.6,99.84,133.25,99.82,132.89,99.78z"/>
	<path class="st0" d="M72.82,142.83c-1.08-1.08-1.53-2.57-1.51-4.07c0.04-2.39,1.44-4.73,2.52-6.81c1.74-3.37,4.04-6.45,6.71-9.15
		c1-1,2.02-1.96,3.18-2.77c1.79-1.25,3.87-2.08,6.02-2.46c1.85-0.33,3.83-0.44,5.66,0.07c1.87,0.51,3.49,1.41,4.98,2.64
		c1.61,1.33,2.96,2.97,4.19,4.65c0.86,1.17,1.55,2.46,2.28,3.71c0.17-0.13,0.34-0.27,0.51-0.41c0.62-0.58,1.21-1.19,1.79-1.81
		c1.26-1.46,2.5-2.93,3.83-4.32c1.5-1.55,3.28-2.62,5.35-3.21c1.17-0.33,2.44-0.32,3.64-0.26c0.96,0.04,1.96,0.16,2.88,0.41
		c2.04,0.55,3.79,1.44,5.38,2.84c0.8,0.71,1.53,1.49,2.2,2.33c0.75,0.94,1.41,1.97,1.9,3.07c0.23,0.52,0.43,1.06,0.63,1.59
		c1.35,1.94,0.83,4.76-1.03,6.2c-2.03,1.57-4.87,1.1-6.46-0.83c-0.78-0.94-1.09-2.1-1.56-3.2c-0.13-0.24-0.27-0.48-0.41-0.71
		c-0.22-0.29-0.44-0.57-0.67-0.85c-0.22-0.22-0.44-0.44-0.66-0.66c-0.17-0.14-0.34-0.28-0.51-0.41c-0.08-0.05-0.16-0.1-0.25-0.15
		c-0.1-0.05-0.21-0.09-0.31-0.13c-0.18-0.05-0.35-0.1-0.53-0.15c-0.38-0.06-0.75-0.11-1.13-0.16c-0.21-0.01-0.42-0.01-0.62,0
		c-0.1,0.01-0.19,0.03-0.29,0.04c-0.04,0.01-0.07,0.02-0.11,0.03c-0.02,0.01-0.04,0.02-0.06,0.03c-0.04,0.03-0.08,0.05-0.13,0.08
		c-0.12,0.1-0.24,0.19-0.37,0.29c-0.56,0.53-1.08,1.08-1.59,1.65c-2.62,3.06-5.27,6.46-9.16,7.91c-1.7,0.63-3.72,0.77-5.43,0.07
		c-1.7-0.69-3.01-1.81-4-3.35c-0.89-1.35-1.63-2.79-2.51-4.15c-0.39-0.52-0.78-1.03-1.19-1.54c-0.47-0.52-0.95-1.02-1.47-1.5
		c-0.17-0.14-0.35-0.28-0.53-0.41c-0.13-0.08-0.27-0.16-0.4-0.24c-0.06-0.03-0.12-0.05-0.18-0.08c-0.11-0.03-0.23-0.06-0.34-0.1
		c-0.1-0.02-0.2-0.03-0.3-0.04c-0.17,0-0.34,0-0.51,0c-0.33,0.03-0.66,0.08-0.99,0.14c-0.3,0.07-0.6,0.15-0.9,0.25
		c-0.23,0.09-0.46,0.18-0.68,0.29c-0.2,0.11-0.4,0.22-0.59,0.34c-0.32,0.23-0.63,0.47-0.93,0.72c-0.71,0.67-1.38,1.38-2.04,2.09
		c-0.89,1.04-1.74,2.1-2.56,3.21c-0.74,1.2-1.43,2.41-2.09,3.66c-0.26,0.54-0.51,1.07-0.75,1.62c0.05,0.26,0.08,0.53,0.08,0.79
		c0,1.21-0.49,2.4-1.35,3.26c-0.9,0.9-2.01,1.26-3.26,1.35c-0.08,0.01-0.15,0.01-0.23,0.01C74.81,144.22,73.62,143.63,72.82,142.83z
		"/>
</g>
</svg>
