<?xml version="1.0" encoding="utf-8"?>
<!-- Generator: Adobe Illustrator 24.0.2, SVG Export Plug-In . SVG Version: 6.00 Build 0)  -->
<svg version="1.1" id="Layer_1" xmlns="http://www.w3.org/2000/svg" xmlns:xlink="http://www.w3.org/1999/xlink" x="0px" y="0px"
	 viewBox="0 0 200 200" style="enable-background:new 0 0 200 200;" xml:space="preserve">
<style type="text/css">
	.st0{clip-path:url(#SVGID_2_);}
	.st1{clip-path:url(#SVGID_4_);}
	.st2{clip-path:url(#SVGID_6_);}
	.st3{clip-path:url(#SVGID_8_);}
	.st4{clip-path:url(#SVGID_10_);}
	.st5{clip-path:url(#SVGID_12_);}
	.st6{clip-path:url(#SVGID_14_);}
	.st7{clip-path:url(#SVGID_16_);}
	.st8{clip-path:url(#SVGID_18_);}
</style>
<g>
	<g>
		<defs>
			<rect id="SVGID_7_" x="-9.36" y="-10.42" width="218.36" height="218.36"/>
		</defs>
		<clipPath id="SVGID_2_">
			<use xlink:href="#SVGID_7_"  style="overflow:visible;"/>
		</clipPath>
		<g class="st0">
			<defs>
				<rect id="SVGID_9_" x="1.76" y="7.04" width="197.87" height="186.75"/>
			</defs>
			<clipPath id="SVGID_4_">
				<use xlink:href="#SVGID_9_"  style="overflow:visible;"/>
			</clipPath>
			<path class="st1" d="M118.74,184.47c2.01-0.17,4.01-0.36,6.02-0.59c2.04-0.22,4.06-0.61,6.08-0.95c2.05-0.42,4.1-0.86,6.12-1.41
				c2.16-0.6,4.29-1.27,6.41-1.99c2.34-0.9,4.63-1.86,6.9-2.91c1.36-0.69,2.7-1.4,4.04-2.13c1.34-0.73,2.61-1.6,3.87-2.46
				c2.65-1.93,5.2-3.95,7.7-6.08c1.37-1.24,2.72-2.5,4.01-3.84c0.78-0.81,1.54-1.63,2.3-2.46c0.21-0.23,0.41-0.47,0.62-0.7
				c0.23-0.27,0.47-0.53,0.7-0.8c-0.02,0.02-0.04,0.04-0.05,0.06c1.94-2.29,3.77-4.63,5.48-7.09c1.39-2.19,2.68-4.41,3.87-6.72
				c0.8-1.73,1.53-3.47,2.21-5.24c1.21-3.58,2.21-7.19,3.05-10.88c1.18-6.06,1.77-12.21,2.23-18.36c0.16-2.73,0.26-5.46,0.21-8.18
				c-0.06-2.91-0.28-5.81-0.47-8.71c0.01,0.2,0.03,0.39,0.04,0.59c-0.2-2.98-0.37-5.97-0.78-8.93c-0.46-3.27-1.08-6.51-1.72-9.75
				c-0.64-3.07-1.34-6.1-2.3-9.09c-1.18-3.22-2.57-6.34-4.07-9.41c-1.14-2.2-2.38-4.31-3.75-6.38c-1.8-2.59-3.69-5.1-5.72-7.52
				c-1.02-1.12-2.09-2.17-3.21-3.18c-2.21-1.86-4.45-3.69-6.64-5.57c-2.27-1.95-4.65-3.8-7.1-5.52c-3.21-2.13-6.54-4.16-9.95-5.94
				c-1.12-0.55-2.26-1.05-3.36-1.64c-0.41-0.22-0.79-0.48-1.17-0.75c-1.49-0.45-2.99-0.84-4.5-1.19
				c-6.22-1.22-12.51-2.06-18.82-2.54c-1.34-0.06-2.68-0.12-4.03-0.14c-1.47-0.02-2.94,0.03-4.41,0.08
				c-3.99,0.28-7.96,0.7-11.92,1.25c-4.07,0.58-8.11,1.32-12.15,2.11c-2.97,0.66-5.93,1.36-8.86,2.19
				c-3.09,0.88-6.15,1.84-9.19,2.86c-2.98,1.09-5.95,2.2-8.87,3.46c-2.84,1.23-5.62,2.57-8.4,3.95c-1.6,0.86-3.19,1.72-4.76,2.65
				c-1.54,0.91-3.05,1.87-4.56,2.83c-1.19,0.83-2.38,1.66-3.53,2.56c-1.26,0.99-2.47,2.02-3.67,3.07c-1.47,1.44-2.89,2.9-4.3,4.41
				c-0.6,0.71-1.2,1.43-1.8,2.14c-0.63,0.76-1.2,1.59-1.79,2.39c-0.84,1.3-1.67,2.6-2.44,3.94c-0.76,1.33-1.46,2.68-2.17,4.04
				c-1.37,2.91-2.62,5.83-3.77,8.82c-0.69,2.02-1.41,4.05-1.96,6.13c-0.57,2.18-1.11,4.37-1.62,6.57c-0.42,2.16-0.81,4.32-1.15,6.5
				c-0.34,2.13-0.5,4.29-0.67,6.43c-0.09,2.18-0.15,4.35-0.18,6.52c-0.03,2.22,0.1,4.44,0.22,6.66c0.27,3.32,0.6,6.63,1.01,9.94
				c0.38,3.11,0.96,6.2,1.57,9.27c0.5,2.16,1.03,4.3,1.59,6.44c0.52,1.98,1.19,3.91,1.83,5.85c0.72,1.93,1.46,3.83,2.24,5.73
				c0.74,1.79,1.61,3.53,2.48,5.27c0.49,0.87,0.98,1.73,1.47,2.6c0.44,0.77,0.96,1.51,1.46,2.26c0.6,0.81,1.19,1.63,1.79,2.45
				c0.53,0.72,1.14,1.39,1.72,2.08c0.68,0.72,1.36,1.43,2.05,2.14c0.66,0.69,1.42,1.32,2.14,1.96c0.85,0.68,1.7,1.36,2.55,2.04
				c0.75,0.6,1.58,1.13,2.37,1.67c1.4,0.88,2.79,1.75,4.23,2.56c1.42,0.8,2.85,1.55,4.3,2.3c2.02,0.97,4.03,1.98,6.11,2.84
				c2.08,0.86,4.17,1.68,6.27,2.47c2.12,0.7,4.23,1.35,6.37,1.98c2.17,0.63,4.4,1.09,6.61,1.58c3.99,0.79,7.98,1.53,12.01,2.13
				c4.26,0.63,8.53,1.02,12.83,1.32c-0.2-0.02-0.39-0.03-0.59-0.04C103.21,184.82,110.97,184.9,118.74,184.47z M99.84,193.38
				c-9.21-0.24-18.36-1.39-27.38-3.18c-4.57-0.91-9.21-1.83-13.64-3.31c-2.38-0.79-4.72-1.62-7.07-2.49
				c-2.18-0.81-4.3-1.81-6.42-2.77c-2.28-1.03-4.49-2.2-6.71-3.34c-1.02-0.52-2-1.13-2.99-1.7c-1.12-0.64-2.25-1.35-3.31-2.09
				c-1.98-1.39-4.01-2.76-5.8-4.4c-1.76-1.61-3.57-3.2-5.09-5.05c-1.54-1.86-3.04-3.72-4.36-5.74c-0.64-0.98-1.28-1.94-1.86-2.96
				c-0.66-1.16-1.28-2.33-1.88-3.53c-2.08-4.2-3.8-8.53-5.27-12.97c-2.97-8.93-4.47-18.22-5.43-27.56
				c-0.48-4.71-0.61-9.44-0.53-14.18c0.07-4.83,0.62-9.6,1.39-14.36c0.74-4.61,1.92-9.16,3.27-13.63c1.38-4.55,3.18-8.92,5.2-13.22
				c1.02-2.16,2.19-4.25,3.37-6.32c1.18-2.06,2.58-3.98,4-5.89c2.85-3.83,6.36-7.12,9.93-10.26c1.72-1.51,3.65-2.79,5.52-4.11
				c2.06-1.44,4.25-2.7,6.41-3.97c1.99-1.18,4.08-2.2,6.15-3.23c1.99-0.99,4-1.95,6.05-2.83c8.7-3.76,17.76-6.75,27.01-8.82
				c4.58-1.02,9.21-1.91,13.86-2.57c4.69-0.66,9.43-1.34,14.16-1.49c2.32-0.07,4.61-0.12,6.93-0.01c2.53,0.12,5.05,0.32,7.57,0.57
				c2.29,0.23,4.58,0.57,6.86,0.9c2.08,0.31,4.17,0.63,6.23,1.04c1.89,0.38,3.76,0.8,5.61,1.33c0.76-0.01,1.52,0.18,2.2,0.59
				c0.52,0.31,1,0.66,1.49,1.01c0.25,0.15,0.51,0.3,0.77,0.43c1.82,0.89,3.64,1.77,5.41,2.77c1.92,1.09,3.79,2.25,5.66,3.42
				c3.71,2.32,7.19,4.96,10.5,7.81c1.57,1.36,3.17,2.68,4.77,4c1.68,1.39,3.38,2.8,4.84,4.41c3.11,3.44,5.85,7.16,8.41,11.02
				c2.42,3.65,4.26,7.68,6.01,11.68c1.84,4.2,3.11,8.59,4.03,13.07c0.98,4.74,1.99,9.49,2.45,14.31c0.43,4.54,0.75,9.11,0.96,13.67
				c0.21,4.59,0.01,9.2-0.38,13.78c-0.39,4.63-0.82,9.28-1.61,13.86c-0.82,4.78-2.05,9.49-3.62,14.08
				c-1.54,4.45-3.51,8.81-6.06,12.78c-1.32,2.06-2.7,4.06-4.17,6.02c-0.61,0.81-1.27,1.6-1.93,2.37c-0.61,0.72-1.21,1.52-1.89,2.19
				c-0.47,0.61-1.03,1.18-1.56,1.76c-1.55,1.69-3.14,3.35-4.84,4.89c-1.81,1.63-3.66,3.2-5.56,4.73c-3.7,3-7.71,5.64-11.97,7.79
				c-4.27,2.15-8.67,3.94-13.24,5.35c-4.41,1.36-8.96,2.43-13.54,3.08c-4.88,0.69-9.76,1.13-14.68,1.3
				c-1.92,0.07-3.83,0.09-5.75,0.09C105.51,193.52,102.67,193.46,99.84,193.38z"/>
			<path class="st1" d="M53.66,93.81c-2.11-0.64-3.6-2.65-3.92-4.8c-0.21-1.46-0.16-2.97,0.02-4.45c0.02-1.01,0.15-2.03,0.33-2.99
				c0.78-4.19,3.75-8.69,8.44-8.69c2.13,0,4.21,1.51,5.02,3.47c0.84,2.06,0.87,4.31,0.65,6.49c-0.15,1.48-0.42,2.95-0.87,4.38
				c-0.32,1.02-0.76,1.99-1.32,2.9c-0.58,0.93-1.35,1.67-2.18,2.38c-0.72,0.63-1.68,1.16-2.6,1.41c-0.55,0.15-1.09,0.22-1.63,0.22
				C54.95,94.12,54.31,94.01,53.66,93.81z"/>
			<path class="st1" d="M90.13,119.68c-2.67-1.85-4.62-4.41-6.16-7.23c-1.6-2.93-2.6-6.16-3.59-9.34c-0.47-0.7-0.75-1.53-0.75-2.42
				c0-0.53-0.02-1.06,0.16-1.58c0.64-1.9,2.18-3.13,4.2-3.2c1.11-0.04,2.35,0.46,3.1,1.28c0.78,0.84,1.12,1.75,1.45,2.82
				c0.35,1.17,0.72,2.33,1.11,3.49c0.58,1.58,1.19,3.13,1.91,4.66c0.33,0.6,0.67,1.18,1.03,1.76c0.26,0.36,0.54,0.71,0.82,1.06
				c0.3,0.33,0.61,0.65,0.94,0.96c0.29,0.23,0.58,0.46,0.88,0.67c0.32,0.2,0.63,0.39,0.96,0.57c0.38,0.17,0.76,0.33,1.16,0.48
				c0.49,0.15,0.99,0.28,1.49,0.4c0.92,0.16,1.84,0.28,2.77,0.36c0.9,0.04,1.8,0.04,2.71,0c0.81-0.08,1.62-0.19,2.42-0.34
				c0.84-0.19,1.67-0.42,2.49-0.69c0.67-0.26,1.32-0.53,1.96-0.84c0.78-0.42,1.55-0.86,2.3-1.33c0.41-0.31,0.8-0.62,1.2-0.95
				c0.77-0.74,1.5-1.5,2.21-2.29c1.11-1.35,2.17-2.73,3.17-4.17c0.2-0.31,0.41-0.62,0.61-0.93c1.29-1.99,3.84-2.81,5.96-1.57
				c1.98,1.16,2.85,3.97,1.57,5.96c-2.01,3.11-4.24,6.21-6.93,8.76c-5.02,4.75-11.78,7.13-18.67,7.13
				C98.23,123.17,93.75,122.18,90.13,119.68z"/>
			<path class="st1" d="M140.02,94.74c-0.73-0.7-1.43-1.54-1.82-2.49c-0.57-1.38-0.65-2.77-0.49-4.25c0.37-3.47,1.25-6.91,2.96-9.98
				c1.08-1.93,2.7-3.77,4.97-4.19c0.51-0.09,1.02-0.11,1.5-0.05c1.11-0.35,2.28-0.36,3.44-0.23c2.31,0.24,4.38,2.19,5.08,4.35
				c0.83,2.55,0.47,5.11-0.13,7.67c-0.6,2.56-1.72,4.88-3.26,7.01c-1.39,1.93-3.71,3.66-6.12,3.98c-0.34,0.05-0.69,0.07-1.05,0.07
				C143.26,96.64,141.36,96,140.02,94.74z"/>
			<path class="st1" d="M56.96,93.83c-0.91,0.01-1.84-0.17-2.71-0.54c-2.4-1.02-3.69-3.58-3.85-6.06c-0.1-1.52,0.08-3.09,0.48-4.62
				c0.21-1.01,0.55-1.99,0.93-2.93c1.4-3.48,4.06-7.39,8.25-7.39c1.66,0,3.34,0.74,4.5,1.95c0.55,0.24,1.05,0.57,1.47,0.99
				c0.65,0.64,1.24,1.45,1.44,2.36c0.08,0.35,0.13,0.68,0.17,1.01c0.07,0.32,0.11,0.64,0.11,0.98c0,1.12-0.44,2.16-1.16,2.93
				c-0.12,1.36-0.43,2.72-0.84,4.01c-0.63,2.01-1.63,3.8-3.06,5.35c-1.21,1.31-2.96,2.04-4.72,2.04
				C57.65,93.91,57.3,93.88,56.96,93.83z"/>
		</g>
	</g>
</g>
</svg>
