<?xml version="1.0" encoding="utf-8"?>
<!-- Generator: Adobe Illustrator 24.0.2, SVG Export Plug-In . SVG Version: 6.00 Build 0)  -->
<svg version="1.1" id="Layer_1" xmlns="http://www.w3.org/2000/svg" xmlns:xlink="http://www.w3.org/1999/xlink" x="0px" y="0px"
	 viewBox="0 0 200 200" style="enable-background:new 0 0 200 200;" xml:space="preserve">
<style type="text/css">
	.st0{clip-path:url(#SVGID_2_);}
	.st1{clip-path:url(#SVGID_4_);}
	.st2{clip-path:url(#SVGID_6_);}
	.st3{clip-path:url(#SVGID_8_);}
	.st4{clip-path:url(#SVGID_10_);}
	.st5{clip-path:url(#SVGID_12_);}
	.st6{clip-path:url(#SVGID_14_);}
	.st7{clip-path:url(#SVGID_16_);}
	.st8{clip-path:url(#SVGID_18_);}
</style>
<g>
	<g>
		<defs>
			<rect id="SVGID_15_" x="-13.42" y="-10.42" width="230.85" height="230.85"/>
		</defs>
		<clipPath id="SVGID_2_">
			<use xlink:href="#SVGID_15_"  style="overflow:visible;"/>
		</clipPath>
		<g class="st0">
			<defs>
				<rect id="SVGID_17_" x="12.17" y="6" width="177.9" height="187.92"/>
			</defs>
			<clipPath id="SVGID_4_">
				<use xlink:href="#SVGID_17_"  style="overflow:visible;"/>
			</clipPath>
			<path class="st1" d="M110.98,184.2c2.4-0.26,4.77-0.6,7.14-1.01c4.45-0.94,8.79-2.15,13.1-3.61c2.16-0.82,4.25-1.72,6.33-2.7
				c1.68-0.87,3.35-1.77,4.97-2.75c1.52-0.93,3-1.91,4.48-2.91c2.36-1.65,4.61-3.39,6.81-5.25c2.04-1.86,3.97-3.8,5.82-5.85
				c2.68-3.15,5.24-6.37,7.59-9.77c1.84-2.86,3.58-5.77,5.17-8.77c1.41-2.95,2.64-5.96,3.74-9.04c1.15-3.49,2.15-7.02,2.97-10.6
				c0.56-2.95,0.96-5.89,1.19-8.88c0.2-4.37,0.18-8.74,0.16-13.12c-0.01-4.21,0.02-8.42-0.2-12.62c-0.25-3.42-0.68-6.78-1.33-10.14
				c-0.5-2.39-1.01-4.78-1.65-7.14c-0.65-2.4-1.4-4.77-2.2-7.13c-0.98-2.75-2-5.48-3.17-8.16c-1.14-2.6-2.38-5.16-3.61-7.71
				c-0.69-1.31-1.42-2.58-2.21-3.82c-2.09-2.99-4.45-5.79-6.84-8.54c-1.71-1.91-3.65-3.6-5.3-5.56c-1.08-1.28-1.91-2.76-2.81-4.17
				c-0.21-0.29-0.42-0.58-0.65-0.85c-0.32-0.34-0.66-0.66-0.99-0.99c-0.34-0.34-0.61-0.73-0.82-1.15c-2.18-0.98-4.31-2.07-6.54-2.93
				c-1.89-0.6-3.79-1.08-5.73-1.5c-3.89-0.69-7.77-1.22-11.7-1.58c-5.95-0.36-11.88-0.42-17.83-0.16
				c-5.84,0.43-11.62,1.12-17.37,2.22c-2.89,0.7-5.71,1.5-8.54,2.41c-1.85,0.68-3.68,1.39-5.51,2.14c-1.64,0.67-3.24,1.48-4.83,2.26
				c-3.17,1.69-6.25,3.47-9.26,5.43c-4.02,2.86-7.91,5.87-11.67,9.06c-2.78,2.53-5.41,5.17-7.96,7.95c-2.66,3.17-5.13,6.46-7.5,9.85
				c-1.55,2.39-3,4.8-4.36,7.31c-1.09,2.3-2.07,4.62-2.97,7c-0.59,1.75-1.19,3.5-1.65,5.28c-0.51,2-0.99,4.01-1.45,6.03
				c-0.41,2.1-0.82,4.21-1.13,6.33c-0.33,2.32-0.58,4.62-0.75,6.95c-0.06,1.8-0.15,3.62-0.1,5.42c0.05,1.74,0.13,3.45,0.24,5.18
				c0.22,2.44,0.45,4.87,0.76,7.3c0.29,2.3,0.68,4.57,1.12,6.84c0.54,2.26,1.13,4.5,1.84,6.72c0.67,2.11,1.39,4.19,2.11,6.27
				c1.53,4.27,3.11,8.5,5.05,12.61c1.18,2.21,2.43,4.37,3.76,6.51c1.33,1.92,2.72,3.74,4.2,5.54c2.19,2.43,4.44,4.76,6.85,6.98
				c1.85,1.56,3.73,3.03,5.69,4.45c2.04,1.31,4.1,2.52,6.22,3.67c4.46,2.18,9.02,4.09,13.69,5.78c3.12,1.02,6.25,1.9,9.45,2.65
				c5.53,1.09,11.11,1.77,16.73,2.23C103.37,184.36,107.16,184.42,110.98,184.2z M101.72,193.5c-4.62-0.15-9.28-0.68-13.86-1.34
				c-4.91-0.71-9.72-1.78-14.48-3.18c-4.57-1.35-9.01-3.17-13.35-5.1c-4.51-2-8.88-4.35-12.89-7.23c-2.01-1.44-3.98-2.97-5.8-4.64
				c-1.9-1.74-3.71-3.55-5.47-5.42c-3.28-3.49-6.25-7.35-8.64-11.5c-1.38-2.39-2.64-4.82-3.82-7.32c-0.96-2.02-1.72-4.16-2.5-6.25
				c-1.65-4.46-3.33-8.96-4.63-13.54c-1.36-4.8-2.3-9.68-2.83-14.64c-0.53-4.99-1-10-0.83-15.01c0.09-2.74,0.28-5.45,0.58-8.17
				c0.26-2.32,0.67-4.64,1.12-6.93c0.5-2.59,1.06-5.17,1.71-7.73c0.6-2.34,1.33-4.64,2.11-6.93c0.85-2.54,1.93-5,3.08-7.41
				c1.04-2.17,2.2-4.34,3.51-6.36c2.79-4.27,5.71-8.44,9-12.34c3.22-3.83,6.76-7.43,10.58-10.67c3.87-3.29,7.87-6.52,12.12-9.32
				c4.14-2.71,8.44-5.25,12.95-7.29c2.29-1.04,4.59-2.01,6.95-2.88c2.42-0.89,4.87-1.65,7.35-2.35c4.77-1.35,9.71-2.06,14.62-2.64
				c4.92-0.57,9.84-0.85,14.79-0.94c3.44-0.06,6.9,0.06,10.33,0.28c3.59,0.23,7.16,0.57,10.71,1.15c3.6,0.58,7.16,1.26,10.62,2.4
				c1.62,0.53,3.17,1.23,4.69,1.98c1.46,0.73,2.94,1.38,4.45,2.01c1.29,0.53,2.21,1.64,2.6,2.91c0.61,0.63,1.22,1.26,1.75,1.97
				c0.82,1.11,1.51,2.32,2.27,3.47c0.26,0.36,0.52,0.72,0.81,1.06c1.21,1.32,2.56,2.49,3.76,3.82c1.57,1.73,3.08,3.52,4.57,5.33
				c1.5,1.83,3.01,3.67,4.29,5.66c1.29,2.01,2.41,4.08,3.42,6.24c1.85,4,3.76,7.95,5.28,12.09c1.58,4.3,3.04,8.65,4.1,13.11
				c1.09,4.55,2.08,9.17,2.48,13.84c0.39,4.67,0.45,9.32,0.46,14.01c0,4.94,0.1,9.9-0.14,14.83c-0.23,4.85-0.92,9.64-2.11,14.34
				c-1.16,4.59-2.59,9.13-4.38,13.52c-1.83,4.46-4.11,8.66-6.64,12.75c-2.54,4.1-5.47,7.95-8.6,11.62
				c-3.16,3.7-6.55,7.16-10.35,10.2c-3.87,3.1-8.05,5.94-12.38,8.36c-4.46,2.5-9.12,4.49-14,6.03c-4.63,1.46-9.38,2.73-14.19,3.42
				c-2.62,0.38-5.22,0.63-7.85,0.79c-0.83,0.05-1.67,0.07-2.5,0.07C104.94,193.63,103.32,193.55,101.72,193.5z"/>
			<path class="st1" d="M68.8,99.27c-0.61-0.04-1.23-0.04-1.83-0.2c-0.55-0.15-1.04-0.43-1.54-0.72c-2.25-1.29-3.02-4.13-2.85-6.55
				c0.1-1.51,0.51-2.96,1.21-4.28c0.1-0.3,0.2-0.6,0.32-0.89c0.87-2.09,2.29-3.89,4.3-4.98c2.05-1.11,4.83-1.24,6.75,0.25
				c0.92,0.71,1.51,1.56,1.97,2.61c0.13,0.28,0.22,0.57,0.29,0.87c0.52,0.81,0.81,1.76,0.76,2.73c-0.07,1.34-0.34,2.63-0.77,3.9
				c-0.34,1.01-0.78,1.97-1.32,2.89c-0.58,1.02-1.43,2.15-2.41,2.83c-0.84,0.58-1.65,1.02-2.63,1.3c-0.46,0.13-0.97,0.2-1.48,0.2
				c-0.19,0.03-0.39,0.04-0.57,0.04C68.93,99.28,68.87,99.28,68.8,99.27z"/>
			<path class="st1" d="M80.03,78.05c-1.55-0.83-3.03-1.77-4.39-2.88c-1.25-1.02-2.44-2.16-3.72-3.16
				c-2.15-0.38-3.82-2.29-3.82-4.53c0-1.88,1.16-3.61,2.89-4.35c2.33-0.98,4.66,0.09,6.49,1.55c1.74,1.39,3.36,2.91,5.16,4.23
				c0.66,0.42,1.34,0.81,2.04,1.19c2.2,1.19,2.89,4.19,1.65,6.3c-0.87,1.48-2.39,2.25-3.96,2.25
				C81.57,78.64,80.77,78.45,80.03,78.05z"/>
			<path class="st1" d="M122.96,77.21c-1.34-1.34-1.65-3.3-0.99-5.05c0.24-0.64,0.65-1.12,1.11-1.57c0.59-0.65,1.36-1.13,2.21-1.38
				c1.6-0.95,3.14-2.02,4.73-2.98c1.97-1.18,3.95-2.32,5.88-3.55c2.12-1.35,5.08-0.45,6.31,1.65c1.31,2.24,0.45,4.95-1.65,6.3
				c-1.93,1.24-3.91,2.38-5.88,3.56c-0.98,0.59-1.94,1.19-2.91,1.81c-1.2,0.76-2.43,1.7-3.76,2.2c-0.59,0.22-1.21,0.34-1.82,0.34
				C125.01,78.53,123.86,78.1,122.96,77.21z"/>
			<path class="st1" d="M131.48,97.52c-1.48-0.18-2.97-1.06-3.88-2.23c-0.78-1.01-1.18-2.08-1.41-3.32
				c-0.25-1.35,0.07-2.82,0.37-4.13c0.6-2.66,2.21-5.32,4.81-6.41c1.16-0.49,2.41-0.59,3.6-0.36c1.69-0.09,3.42,0.44,4.72,1.49
				c1.2,0.96,1.98,2.4,2.19,3.93c0.21,1.52-0.22,3.04-0.76,4.45c-0.46,1.2-1.21,2.34-2.05,3.3c-0.96,1.11-2.19,2.21-3.59,2.74
				c-1.02,0.38-2,0.6-3.05,0.6C132.12,97.58,131.8,97.56,131.48,97.52z"/>
			<path class="st1" d="M72.65,143.74c-2.22-0.3-4.22-2.43-4.09-4.76c0.06-1.19,0.39-2.19,1.04-3.18c0.36-0.55,0.74-1.1,1.12-1.64
				c1.14-1.78,2.06-3.67,3.24-5.43c1.3-1.94,2.71-3.86,4.36-5.53c3.93-3.95,9.2-6.36,14.53-7.77c2.38-0.63,4.82-0.99,7.26-1.22
				c2.25-0.21,4.58-0.36,6.84-0.27c2.64,0.11,5.26,0.34,7.84,0.94c2.29,0.54,4.59,1.1,6.84,1.78c3.95,1.19,8,2.57,11.29,5.15
				c1.44,1.13,2.79,2.38,4.18,3.57c1.02,0.87,2.1,1.72,3.02,2.71c1.71,1.84,1.82,4.69,0,6.52c-1.73,1.73-4.8,1.83-6.52,0
				c-0.35-0.38-0.73-0.72-1.12-1.06c0.05,0.04,0.1,0.09,0.15,0.13c-1.96-1.72-3.9-3.51-6.02-5.04c-0.58-0.35-1.16-0.68-1.76-1.01
				c-0.88-0.39-1.76-0.76-2.66-1.11c-3.18-1.06-6.41-1.93-9.67-2.69c-1.41-0.26-2.81-0.45-4.23-0.6c-2.23-0.08-4.45-0.03-6.68,0.1
				c-1.57,0.15-3.13,0.36-4.68,0.62c-1.26,0.28-2.49,0.61-3.72,0.98c-1.17,0.43-2.31,0.9-3.44,1.41c-1.05,0.55-2.07,1.13-3.07,1.77
				c-0.34,0.26-0.67,0.51-1,0.79c-0.48,0.45-0.94,0.93-1.38,1.41c-0.81,0.97-1.58,1.96-2.31,2.98c-0.76,1.16-1.47,2.34-2.14,3.56
				c-0.62,1.13-1.33,2.21-2.06,3.27c-0.44,2.12-2.37,3.67-4.52,3.67C73.06,143.78,72.86,143.77,72.65,143.74z"/>
		</g>
	</g>
</g>
</svg>
