<?xml version="1.0" encoding="utf-8"?>
<!-- Generator: Adobe Illustrator 24.0.2, SVG Export Plug-In . SVG Version: 6.00 Build 0)  -->
<svg version="1.1" id="Layer_1" xmlns="http://www.w3.org/2000/svg" xmlns:xlink="http://www.w3.org/1999/xlink" x="0px" y="0px"
	 viewBox="0 0 200 200" style="enable-background:new 0 0 200 200;" xml:space="preserve">
<style type="text/css">
	.st0{clip-path:url(#SVGID_2_);}
	.st1{clip-path:url(#SVGID_4_);}
	.st2{clip-path:url(#SVGID_6_);}
	.st3{clip-path:url(#SVGID_8_);}
	.st4{clip-path:url(#SVGID_10_);}
	.st5{clip-path:url(#SVGID_12_);}
	.st6{clip-path:url(#SVGID_14_);}
	.st7{clip-path:url(#SVGID_16_);}
	.st8{clip-path:url(#SVGID_18_);}
</style>
<g>
	<g>
		<defs>
			<rect id="SVGID_3_" x="-16.42" y="-13.42" width="230.85" height="230.85"/>
		</defs>
		<clipPath id="SVGID_2_">
			<use xlink:href="#SVGID_3_"  style="overflow:visible;"/>
		</clipPath>
		<g class="st0">
			<defs>
				<rect id="SVGID_5_" x="8.4" y="2.66" width="184.16" height="195.05"/>
			</defs>
			<clipPath id="SVGID_4_">
				<use xlink:href="#SVGID_5_"  style="overflow:visible;"/>
			</clipPath>
			<path class="st1" d="M104.72,188.11c5.06-0.41,10.04-1.1,15.01-2.09c3.31-0.77,6.55-1.66,9.78-2.7c2.94-1.08,5.8-2.28,8.63-3.62
				c2.61-1.36,5.12-2.84,7.6-4.43c3-2.08,5.89-4.28,8.7-6.62c2.14-1.92,4.17-3.91,6.14-6.01c2.14-2.49,4.1-5.07,5.98-7.76
				c3.46-5.22,6.77-10.55,9.61-16.14c0.82-1.81,1.57-3.63,2.27-5.49c0.97-2.97,1.75-5.96,2.4-9.02c0,0.01,0,0.02-0.01,0.03
				c0.89-4.77,1.52-9.56,1.91-14.4c0.25-3.96,0.36-7.91,0.16-11.88c-0.39-3.96-1.03-7.88-1.59-11.82
				c-0.58-4.05-1.06-8.11-1.85-12.13c-1.05-4.42-2.53-8.72-4.01-13.02c-1.31-3.67-2.89-7.2-4.59-10.7c-0.83-1.62-1.72-3.18-2.7-4.71
				c-1.28-1.85-2.67-3.61-4.14-5.32c-2.02-2.28-4.12-4.49-6.4-6.53c0.11,0.09,0.22,0.19,0.33,0.28c-1.89-1.66-3.77-3.35-5.59-5.08
				c-1.15-1.09-2.27-2.2-3.3-3.4c-0.59-0.69-0.89-1.54-0.95-2.4c-2.46-1.54-4.96-3.02-7.52-4.4c-1.68-0.81-3.37-1.55-5.1-2.24
				c-2.78-0.94-5.58-1.71-8.44-2.35c-4.26-0.79-8.52-1.38-12.83-1.76c-1.88-0.1-3.76-0.22-5.63-0.21c-2,0.01-3.98,0.06-5.98,0.16
				c-2.8,0.26-5.59,0.57-8.37,1c-2.76,0.43-5.5,0.95-8.24,1.5c-2.29,0.52-4.57,1.07-6.85,1.65c-2.08,0.53-4.12,1.21-6.16,1.87
				c-1.53,0.54-3.05,1.1-4.53,1.76c-1.76,0.78-3.49,1.61-5.22,2.47c-1.53,0.84-3.06,1.68-4.56,2.59c-1.45,0.87-2.85,1.8-4.26,2.73
				c-2.71,1.98-5.33,4.03-7.9,6.18c-1.4,1.3-2.77,2.62-4.11,3.99c-1.12,1.14-2.2,2.33-3.27,3.52c-1.89,2.29-3.64,4.65-5.33,7.09
				c-1.72,2.66-3.36,5.35-4.88,8.12c-1.44,2.94-2.58,5.97-3.66,9.05c-0.92,2.88-1.8,5.76-2.59,8.67c-0.76,2.79-1.36,5.6-1.95,8.43
				c-0.52,2.8-1.05,5.6-1.43,8.43c-0.41,3.04-0.69,6.07-0.91,9.12c-0.19,4.64-0.23,9.27-0.07,13.92c0.16,2.15,0.35,4.29,0.59,6.43
				c0.25,2.28,0.7,4.54,1.11,6.79c0.36,1.64,0.72,3.28,1.15,4.9c0.43,1.66,0.93,3.29,1.44,4.93c0.46,1.28,0.92,2.55,1.44,3.8
				c0.59,1.42,1.23,2.8,1.88,4.19c1.29,2.49,2.62,4.93,4.15,7.29c1.13,1.62,2.28,3.23,3.47,4.81c1.15,1.54,2.4,2.99,3.66,4.44
				c1.97,2.12,4,4.16,6.11,6.13c2.14,1.81,4.32,3.52,6.59,5.15c1.56,1.01,3.13,1.99,4.73,2.95c1.67,1,3.44,1.86,5.17,2.74
				c-0.18-0.09-0.35-0.18-0.53-0.27c2.48,1.15,4.96,2.19,7.52,3.15c5.86,1.93,11.87,3.38,17.89,4.73c3.21,0.63,6.41,1.09,9.67,1.4
				C97.82,188.2,101.26,188.24,104.72,188.11z M96.82,197.38c-4.98-0.12-9.96-0.82-14.82-1.91c-5.05-1.13-10.09-2.37-15.06-3.82
				c-4.8-1.41-9.37-3.44-13.82-5.69c-4.46-2.26-8.67-5.04-12.6-8.12c-4.01-3.14-7.66-6.74-10.98-10.59
				c-3.17-3.67-6.14-7.6-8.65-11.75c-2.59-4.27-4.77-8.84-6.46-13.53c-1.76-4.88-2.96-9.91-3.9-15.01
				c-1.82-9.93-1.8-20.05-1.11-30.1c0.34-4.88,1.17-9.72,2.07-14.53c0.91-4.89,2.1-9.71,3.52-14.47c0.73-2.44,1.53-4.85,2.37-7.25
				c0.75-2.17,1.57-4.37,2.6-6.42c1.21-2.43,2.54-4.76,3.93-7.08c1.32-2.2,2.82-4.31,4.29-6.42c2.79-4.02,6.2-7.56,9.62-11.04
				c1.7-1.73,3.6-3.36,5.51-4.86c2.02-1.59,4.03-3.2,6.17-4.62c4.17-2.76,8.45-5.42,13.04-7.47c4.6-2.06,9.33-3.84,14.23-5.09
				c4.88-1.25,9.81-2.39,14.8-3.17c5.09-0.79,10.22-1.45,15.38-1.47c8.37-0.02,16.64,0.96,24.8,2.8c1.8,0.4,3.6,0.94,5.34,1.54
				c1.99,0.69,3.98,1.42,5.88,2.34c3.99,1.95,7.77,4.22,11.52,6.61c1.43,0.91,2.28,2.45,2.27,4.04c0.65,0.69,1.35,1.35,2.04,2.01
				c1.6,1.53,3.24,3.02,4.91,4.48c-0.15-0.13-0.3-0.26-0.45-0.39c3.34,2.93,6.36,6.13,9.22,9.52c1.53,1.81,2.89,3.75,4.17,5.74
				c1.41,2.18,2.54,4.54,3.65,6.88c0.95,2.02,1.88,4.05,2.71,6.13c0.91,2.27,1.65,4.61,2.43,6.93c0.75,2.25,1.49,4.51,2.17,6.79
				c0.72,2.43,1.19,4.93,1.62,7.42c0.39,2.27,0.66,4.56,0.97,6.84c0.3,2.19,0.64,4.37,0.96,6.56c0.37,2.46,0.7,4.92,0.94,7.4
				c0.23,2.46,0.23,4.92,0.19,7.39c-0.06,5.02-0.51,10.05-1.19,15.03c-0.67,4.94-1.64,9.83-3.04,14.62
				c-1.44,4.92-3.61,9.57-6.14,14.02c-2.34,4.11-4.83,8.12-7.45,12.05c-2.73,4.11-5.79,8.02-9.27,11.52
				c-3.47,3.49-7.23,6.63-11.2,9.53c-4.12,3.01-8.47,5.64-13.08,7.85c-4.39,2.1-8.94,3.69-13.6,5.05c-2.5,0.73-5.07,1.25-7.62,1.77
				c-2.34,0.48-4.7,0.84-7.07,1.15c-2.56,0.33-5.13,0.64-7.71,0.74c-1.52,0.06-3.04,0.09-4.56,0.09
				C99.14,197.42,97.98,197.41,96.82,197.38z"/>
			<path class="st1" d="M63.1,103.56c-2.09-1.22-3.18-3.48-2.98-5.87c0.01-0.17,0.03-0.34,0.06-0.51c-0.01-0.65,0.04-1.3,0.15-1.93
				c0.05-0.32,0.12-0.65,0.2-0.97c0.1-0.74,0.29-1.46,0.54-2.16c0.68-1.96,1.83-3.73,3.55-4.92c1.96-1.36,4.44-1.72,6.56-0.48
				c1.65,0.97,2.56,2.57,2.85,4.34c0.05,0.1,0.1,0.2,0.14,0.31c0.96,2.28,0.39,4.94-0.56,7.11c-0.74,1.69-1.83,3.17-3.27,4.31
				c-1.2,0.95-2.79,1.52-4.35,1.52C64.98,104.31,63.98,104.07,63.1,103.56z"/>
			<path class="st1" d="M78.27,115.1c-0.28-2.08,0.93-4.08,2.79-4.88c-0.01,0-0.01,0-0.02,0.01c0.01,0,0.03-0.01,0.04-0.01
				c0.35-0.15,0.73-0.25,1.13-0.31c0,0-0.01,0-0.01,0c0.88-0.18,1.78-0.27,2.67-0.39c1.67-0.23,3.35-0.4,5.04-0.54
				c3.26-0.27,6.52-0.52,9.78-0.86c6.23-0.64,12.44-1.39,18.67-1.92c1.25-0.11,2.43,0.14,3.44,0.92c0.95,0.73,1.59,1.83,1.75,3.03
				c0.33,2.4-1.43,4.96-3.94,5.19c-6.12,0.55-12.22,1.21-18.33,1.89c-3.02,0.33-6.06,0.56-9.09,0.8c-2.74,0.22-5.53,0.42-8.24,0.91
				c-0.16,0.04-0.32,0.07-0.49,0.09c-0.2,0.03-0.4,0.04-0.6,0.04C80.6,119.08,78.58,117.39,78.27,115.1z"/>
			<path class="st1" d="M132.87,101.82c-0.99-0.48-1.93-1.08-2.61-1.96c-0.75-0.97-1.1-2.08-1.27-3.27
				c-0.28-2.03,0.63-4.15,1.52-5.92c0.4-0.78,0.93-1.53,1.58-2.14c0.89-1.37,2.07-2.5,3.56-3.23c2.31-1.14,5.12-0.94,7.25,0.5
				c2.01,1.36,3.03,3.65,2.84,6.06c-0.18,2.16-1.05,4.31-2.34,6.05c-1.22,1.63-2.67,2.84-4.5,3.73c-0.96,0.47-2.16,0.73-3.34,0.73
				C134.59,102.38,133.65,102.2,132.87,101.82z"/>
		</g>
	</g>
</g>
</svg>
