<?xml version="1.0" encoding="utf-8"?>
<!-- Generator: Adobe Illustrator 24.0.2, SVG Export Plug-In . SVG Version: 6.00 Build 0)  -->
<svg version="1.1" id="Layer_1" xmlns="http://www.w3.org/2000/svg" xmlns:xlink="http://www.w3.org/1999/xlink" x="0px" y="0px"
	 viewBox="0 0 200 200" style="enable-background:new 0 0 200 200;" xml:space="preserve">
<style type="text/css">
	.st0{clip-path:url(#SVGID_2_);}
	.st1{clip-path:url(#SVGID_4_);}
	.st2{clip-path:url(#SVGID_6_);}
	.st3{clip-path:url(#SVGID_8_);}
	.st4{clip-path:url(#SVGID_10_);}
	.st5{clip-path:url(#SVGID_12_);}
	.st6{clip-path:url(#SVGID_14_);}
	.st7{clip-path:url(#SVGID_16_);}
	.st8{clip-path:url(#SVGID_18_);}
</style>
<g>
	<g>
		<defs>
			<rect id="SVGID_11_" x="-12.62" y="-12.42" width="230.85" height="230.85"/>
		</defs>
		<clipPath id="SVGID_2_">
			<use xlink:href="#SVGID_11_"  style="overflow:visible;"/>
		</clipPath>
		<g class="st0">
			<defs>
				<rect id="SVGID_13_" x="3.61" y="6.46" width="192.23" height="188.55"/>
			</defs>
			<clipPath id="SVGID_4_">
				<use xlink:href="#SVGID_13_"  style="overflow:visible;"/>
			</clipPath>
			<path class="st1" d="M110.04,185c2.39-0.17,4.78-0.35,7.17-0.64c2.51-0.31,4.99-0.76,7.47-1.25c4.91-1.17,9.72-2.59,14.51-4.21
				c4.26-1.52,8.43-3.16,12.51-5.13c1.55-0.86,3.08-1.75,4.59-2.68c2.77-1.89,5.44-3.88,8.02-6.02c1.67-1.53,3.26-3.1,4.81-4.76
				c1.49-1.77,2.89-3.57,4.23-5.46c2.18-3.34,4.15-6.77,6-10.31c0.97-2.03,1.85-4.07,2.65-6.17c0.46-1.39,0.89-2.79,1.3-4.2
				c0.4-1.38,0.68-2.81,0.97-4.22c0.85-4.74,1.49-9.48,1.85-14.28c0.17-3.76,0.24-7.51,0.07-11.27c-0.21-2.28-0.5-4.53-0.87-6.79
				c-0.85-4.04-1.97-7.99-3.02-11.98c-1.06-4.03-2.01-8.08-3.3-12.05c-0.65-1.71-1.36-3.36-2.14-5.01c-1.31-2.51-2.7-4.98-4.07-7.46
				c-1.38-2.51-2.59-5.1-3.86-7.67c-1.13-2.19-2.35-4.3-3.71-6.35c-1.79-2.57-3.53-5.17-5.55-7.56c-0.62-0.66-1.26-1.3-1.93-1.92
				c-1.66-1.43-3.38-2.78-5.18-4.03c-2.57-1.66-5.35-2.98-7.81-4.81c-1.09-0.81-2-1.85-2.82-2.93c-0.44-0.59-0.72-1.25-0.85-1.93
				c-0.16-0.16-0.33-0.32-0.5-0.48c-0.63-0.51-1.28-1-1.94-1.47c-0.55-0.35-1.11-0.69-1.68-1.01c-0.78-0.36-1.57-0.68-2.37-0.99
				c-1.86-0.57-3.73-1.01-5.64-1.42c-5.42-0.94-10.87-1.64-16.36-2.12C105.8,16,99,15.87,92.22,16.25
				c-3.24,0.28-6.43,0.72-9.63,1.31c-3.53,0.82-6.97,1.82-10.41,2.97c-3.52,1.31-6.95,2.74-10.34,4.37
				c-1.75,0.92-3.47,1.88-5.19,2.86c-1.69,0.97-3.31,2.08-4.93,3.16c-3.3,2.32-6.48,4.75-9.57,7.34c-3.08,2.82-6.01,5.75-8.85,8.82
				c-2.58,3-5.01,6.08-7.31,9.3c-0.75,1.18-1.49,2.36-2.18,3.57c-0.72,1.26-1.39,2.53-2.06,3.82c-0.87,1.81-1.71,3.62-2.53,5.45
				c-0.9,2.01-1.6,4.11-2.32,6.19c0.07-0.19,0.14-0.38,0.2-0.57c-0.88,2.92-1.67,5.84-2.36,8.8c-0.33,1.77-0.63,3.54-0.9,5.33
				c-0.27,1.8-0.38,3.62-0.51,5.43c-0.22,5.04-0.29,10.06-0.03,15.1c0.13,1.31,0.25,2.61,0.43,3.91c0.22,1.51,0.48,3.01,0.77,4.51
				c0.42,1.85,0.88,3.68,1.36,5.52c0.46,1.74,1.06,3.45,1.65,5.16c2.06,5.45,4.3,10.81,6.81,16.07c1.68,3.12,3.47,6.13,5.41,9.1
				c2.02,2.86,4.15,5.6,6.41,8.27c1.14,1.29,2.3,2.55,3.48,3.79c1.17,1.23,2.45,2.36,3.71,3.49c1.97,1.68,3.98,3.27,6.08,4.78
				c1.36,0.86,2.73,1.66,4.13,2.45c1.55,0.74,3.11,1.48,4.72,2.1c1.59,0.61,3.19,1.2,4.8,1.77c2.23,0.73,4.46,1.44,6.72,2.06
				c2.17,0.59,4.36,1.09,6.56,1.57c2.9,0.51,5.8,0.9,8.73,1.19C93.43,185.69,101.73,185.45,110.04,185z M81.84,194.19
				c-4.75-0.46-9.47-1.44-14.07-2.7c-4.67-1.28-9.34-2.75-13.8-4.64c-2.49-1.05-4.87-2.23-7.24-3.53c-1.03-0.57-2.04-1.26-2.99-1.95
				c-1.2-0.86-2.36-1.72-3.52-2.64c-3.92-3.1-7.45-6.62-10.75-10.36c-3.32-3.75-6.41-7.76-9.04-12.02
				c-1.36-2.21-2.67-4.44-3.89-6.73c-1.14-2.14-2.15-4.36-3.1-6.58c-2.02-4.71-3.92-9.45-5.59-14.29
				c-1.67-4.86-2.64-9.98-3.38-15.05c-0.33-2.29-0.5-4.7-0.54-7.02c-0.03-2.38-0.05-4.76,0.01-7.14c0.1-4.91,0.28-9.91,1.21-14.75
				c0.49-2.53,1-5.05,1.66-7.55c0.69-2.57,1.49-5.1,2.36-7.62c0.82-2.34,1.83-4.6,2.84-6.86c0.94-2.11,1.98-4.23,3.12-6.23
				c1.33-2.34,2.71-4.61,4.27-6.81c1.43-2.03,2.98-3.97,4.54-5.9c1.56-1.93,3.27-3.75,4.95-5.57c1.61-1.74,3.32-3.42,5.07-5.01
				c3.7-3.37,7.58-6.45,11.68-9.32c8.11-5.69,17.07-10.22,26.55-13.12c4.71-1.44,9.48-2.67,14.38-3.25c2.57-0.3,5.14-0.5,7.73-0.65
				c2.47-0.14,4.96-0.09,7.43-0.07c4.91,0.02,9.8,0.27,14.69,0.69c2.46,0.21,4.91,0.55,7.35,0.89c2.4,0.33,4.81,0.68,7.18,1.16
				c3.58,0.74,7.23,1.57,10.47,3.35c1.53,0.84,3.01,1.82,4.37,2.92c1.72,1.4,3.46,3.07,4.06,5.22c0.08,0.08,0.15,0.15,0.23,0.23
				c0.2,0.16,0.4,0.31,0.61,0.46c1.18,0.78,2.41,1.49,3.64,2.19c1.65,0.92,3.22,1.93,4.77,3.03c2.98,2.11,5.75,4.53,8.13,7.3
				c1.16,1.35,2.18,2.83,3.2,4.28c1.1,1.59,2.26,3.15,3.3,4.78c2.05,3.23,3.71,6.64,5.38,10.07c2.13,4.17,4.56,8.18,6.59,12.4
				c2.16,4.49,3.43,9.33,4.63,14.14c0.59,2.36,1.2,4.72,1.85,7.07c0.61,2.23,1.24,4.46,1.7,6.73c0.52,2.53,1.03,5.07,1.25,7.65
				c0.23,2.6,0.39,5.19,0.36,7.8c-0.12,10-1.19,20.03-3.98,29.66c-1.45,5-3.8,9.64-6.28,14.2c-1.1,2.01-2.29,3.95-3.55,5.86
				c-1.28,1.95-2.6,3.9-4.11,5.67c-1.67,1.96-3.35,3.94-5.26,5.67c-1.96,1.78-3.96,3.47-6.06,5.09c-1.85,1.42-3.78,2.79-5.77,4.01
				c-2.22,1.37-4.49,2.6-6.84,3.74c-4.36,2.11-8.98,3.69-13.55,5.25c-4.54,1.56-9.21,2.94-13.92,3.89
				c-2.43,0.49-4.86,0.95-7.33,1.26c-2.47,0.3-4.95,0.51-7.43,0.68c-4.73,0.33-9.49,0.57-14.23,0.59c-0.61,0-1.22,0-1.83,0
				C90.86,194.72,86.35,194.63,81.84,194.19z"/>
			<path class="st1" d="M52.58,101.58c-0.8-0.67-1.44-1.39-1.85-2.36c-0.4-0.95-0.55-2.15-0.37-3.17c0.23-1.33,0.69-2.64,1.36-3.82
				c0.6-1.37,1.58-2.6,2.86-3.38c0.5-0.3,1.03-0.53,1.57-0.68c1.06-0.4,2.23-0.52,3.44-0.22c2.26,0.55,3.81,2.26,4.24,4.52
				c0.15,0.8,0.04,1.58-0.25,2.3c-0.08,0.47-0.2,0.94-0.32,1.39c-0.44,1.64-1.32,3.08-2.46,4.32c-0.75,0.82-1.86,1.47-3.03,1.77
				c-0.44,0.17-0.89,0.29-1.38,0.34c-0.2,0.02-0.4,0.03-0.6,0.03C54.65,102.62,53.44,102.29,52.58,101.58z"/>
			<path class="st1" d="M122.43,96.97c-3.07-2.37-3.04-6.92-1.52-10.16c0.69-1.45,1.77-2.84,3.17-3.67c0.48-0.28,0.98-0.5,1.49-0.65
				c1.2-0.53,2.58-0.84,3.85-0.59c0.9,0.18,1.7,0.41,2.49,0.88c0.95,0.56,1.84,1.53,2.26,2.55c0.74,1.82,0.68,3.66,0.24,5.55
				c-0.4,1.76-1.17,3.49-2.44,4.79c-1.52,1.56-3.66,2.57-5.79,2.57C124.88,98.24,123.57,97.86,122.43,96.97z"/>
			<path class="st1" d="M67.91,153.14c-2.1-0.09-3.95-1.39-4.51-3.46c-0.35-1.25-0.11-2.41,0.28-3.58c0.14-0.43,0.26-0.86,0.35-1.29
				c0.37-1.98,0.66-3.95,1.18-5.9c0.56-2.08,1.39-4.08,2.25-6.06c0.99-2.29,2.02-4.56,3.17-6.77c1.12-2.14,2.57-4.12,4-6.06
				c2.99-4.03,6.91-7.24,11.71-8.82c2.13-0.7,4.34-1.23,6.57-1.51c2.34-0.3,4.7-0.39,7.06-0.42c2.14-0.03,4.25,0.18,6.33,0.62
				c1.87,0.39,3.71,0.93,5.54,1.47c1.94,0.57,3.89,1.24,5.63,2.29c1.61,0.97,3.19,2,4.8,2.96c3.17,1.89,5.82,4.64,8.22,7.43
				c1.05,1.21,1.88,2.59,2.89,3.84c0.52,0.64,1.04,1.25,1.51,1.93c1.46,2.05,1.21,4.88-0.83,6.46c-1.93,1.49-5,1.21-6.46-0.83
				c-0.51-0.71-1.06-1.36-1.61-2.04c-1.05-1.28-1.95-2.68-3.01-3.95c-1.1-1.2-2.26-2.37-3.46-3.48c-0.43-0.36-0.87-0.69-1.33-1.02
				c-1.04-0.64-2.09-1.26-3.13-1.9c-0.99-0.61-1.94-1.25-2.95-1.8c-0.45-0.2-0.9-0.38-1.36-0.56c-2.27-0.73-4.56-1.39-6.89-1.9
				c-0.6-0.09-1.21-0.17-1.81-0.24c-1.81-0.08-3.62-0.05-5.43,0.03c-1.45,0.12-2.88,0.3-4.31,0.56c-1.13,0.26-2.24,0.55-3.35,0.9
				c-0.47,0.19-0.94,0.38-1.4,0.58c-0.5,0.27-0.99,0.55-1.47,0.86c-0.46,0.34-0.91,0.69-1.35,1.05c-0.49,0.45-0.96,0.92-1.42,1.4
				c-1.09,1.28-2.09,2.63-3.04,4.02c-0.73,1.12-1.41,2.25-2.03,3.43c-1.35,2.76-2.63,5.59-3.67,8.47c-0.35,1.07-0.66,2.16-0.9,3.26
				c-0.34,1.86-0.6,3.71-1.16,5.52c-0.06,2.34-2.04,4.51-4.44,4.51C68.02,153.14,67.97,153.14,67.91,153.14z"/>
		</g>
	</g>
</g>
</svg>
